<?xml version="1.0" encoding="UTF-8"?>
<!-- Generated by Pixelmator Pro 4.0 -->
<svg width="3165" height="1023" viewBox="492 412 3165 1023" xmlns="http://www.w3.org/2000/svg">
    <path id="Path" fill="#040607" stroke="none" d="M 3190.370117 412.410034 C 3392.409912 408.545044 3559.409912 569.02002 3563.610107 771.051025 C 3567.800049 973.08197 3407.600098 1140.349976 3205.580078 1144.869995 C 3003.090088 1149.400024 2835.350098 988.752014 2831.149902 786.255981 C 2826.939941 583.759033 2987.870117 416.283936 3190.370117 412.410034 Z M 3208.669922 965.04303 C 3370.76001 949.937988 3406.97998 719.093994 3291.909912 625.468018 C 3264.879883 603.474976 3223.909912 589.182983 3188.800049 593.396973 C 3025.590088 609.61499 2986.429932 834.513977 3104.449951 930.10199 C 3135.649902 955.372986 3168.72998 966.026978 3208.669922 965.04303 Z"/>
    <path id="path1" fill="#040607" stroke="none" d="M 2130.159912 422.493042 L 2345.870117 422.447021 C 2411.77002 422.446045 2469.689941 418.804932 2535.149902 432.021973 C 2693.790039 464.052979 2749.419922 606.630981 2716.949951 752.843994 C 2702.709961 816.995972 2669.27002 865.028992 2612.699951 900.609985 C 2656.909912 977.869019 2703.389893 1055.640015 2748.51001 1132.51001 L 2667.5 1132.51001 L 2522.47998 1132.51001 L 2433.48999 941.166992 L 2328.639893 941.166992 L 2328.639893 1132.51001 L 2129.669922 1132.51001 L 2129.669922 634.091064 L 2129.639893 489.270996 C 2129.639893 476.831055 2128.73999 432.917969 2130.159912 422.493042 Z M 2328.639893 779 L 2401.659912 779.071045 C 2441.389893 779.098022 2479.5 783.820068 2510.840088 754.35498 C 2522.25 741.151001 2528.709961 730.025024 2532.439941 712.755981 C 2543.840088 660.015015 2528.929932 599.31897 2468.98999 587.602051 C 2447.939941 583.486084 2427.959961 584.755005 2406.669922 584.77002 L 2328.639893 584.835938 L 2328.639893 779 Z"/>
    <path id="path2" fill="#040607" stroke="none" d="M 778.736023 422.48999 L 983.437988 422.48999 C 994.265991 448.535034 1004.77002 477.077026 1015.070007 503.572998 L 1074.640015 656.720947 L 1259.890015 1132.51001 L 1047.290039 1132.51001 L 1008.059998 1019 L 974.5 1019 L 737.911011 1019 L 697.815979 1132.51001 L 492.980988 1132.51001 C 524.062988 1052.780029 557.393982 972.244995 589.429016 892.77002 L 778.736023 422.48999 Z M 793.237976 865 L 874.5 865 L 955.580017 865 L 894.624023 689.467041 C 891.672974 681.078979 878.044983 639.355957 875.106018 634.536987 L 822.968994 781.586914 C 813.327026 808.84198 803.554016 838.130005 793.237976 865 Z"/>
    <path id="path3" fill="#040607" stroke="none" d="M 1816.430054 551.921021 L 2060.679932 423.533936 L 1934.969971 690.291992 L 1583.530029 1434.459961 L 1106.47998 423.800049 C 1129.719971 434.302979 1165.02002 454.386963 1188.430054 466.69397 L 1350.72998 551.952026 L 1583.540039 1045.01001 L 1816.430054 551.921021 Z"/>
    <path id="path4" fill="#040607" stroke="none" d="M 3594.149902 420 L 3609.060059 420 L 3625.320068 447.651001 C 3630.399902 438.396973 3636.080078 429.103027 3641.469971 420 L 3656.159912 420 L 3656.159912 486 L 3642.659912 486 L 3642.659912 458.5 L 3642.629883 443.376953 L 3625.120117 471.526001 C 3619.320068 462.885986 3613.22998 452.504028 3607.72998 443.546997 L 3607.72998 485.99707 L 3594.149902 486 L 3594.149902 420 Z"/>
    <path id="path5" fill="#040607" stroke="none" d="M 3532.209961 420 L 3583.77002 420 L 3583.77002 433.51001 L 3565.090088 433.51001 L 3565.090088 466.5 L 3565.090088 486 L 3551.100098 486 L 3551.100098 433.51001 L 3532.209961 433.51001 L 3532.209961 420 Z"/>
</svg>
