<?xml version="1.0" encoding="UTF-8"?>
<!-- Generated by Pixelmator Pro 4.2 -->
<svg width="3444" height="3388" viewBox="0 0 3444 3388" xmlns="http://www.w3.org/2000/svg">
    <g id="Group">
        <path id="Path" fill="#ffffff" stroke="#000000" stroke-width="36.268963" d="M 1405.277344 2831.871582 C 1405.277344 2831.871582 1452.008789 2631.000977 1419.078125 2489.09668 C 1419.078125 2489.09668 1609.352539 2219.645508 1494.560547 1919.910156 C 1379.767578 1620.174316 1055.969727 2479.789551 1055.969727 2479.789551 C 1055.969727 2479.789551 967.302734 2686.138672 1141.648438 2880.174805 C 1315.994141 3074.211182 1405.277344 2831.871582 1405.277344 2831.871582 Z"/>
        <g id="g1">
            <path id="path1" fill="#ffffff" stroke="#000000" stroke-width="36.268963" d="M 955.966797 605.262695 C 955.966797 605.262695 742.208984 729.039307 738.84375 1001.571289 C 735.65625 1259.854004 799.428711 1396.967285 799.428711 1396.967285 C 799.428711 1396.967285 754.787109 1445.919922 754.787109 1492.627441 C 754.787109 1550.023682 796.240234 1572.344482 796.240234 1572.344482 C 796.240234 1572.344482 1403.626953 1822.655518 1488.182617 1840.193115 C 1488.182617 1840.193115 1912.277344 1578.72168 1507.31543 1170.571045 C 1507.31543 1170.571045 1574.27832 1125.929688 1551.956055 1043.023926 C 1511.847656 894.04834 1166.126953 720.967529 1166.126953 720.967529 L 955.966797 605.262695 Z"/>
            <path id="path2" fill="#ffffff" stroke="#000000" stroke-width="26.377428" d="M 1408.46582 1070.127686 C 1384.691406 1070.127686 1365.418945 1085.831543 1365.418945 1105.203125 C 1365.418945 1124.574707 1384.691406 1140.278564 1408.46582 1140.278564 C 1432.241211 1140.278564 1451.513672 1124.574707 1451.513672 1105.203125 C 1451.513672 1085.831543 1432.241211 1070.127686 1408.46582 1070.127686 Z"/>
            <g id="g2">
                <path id="path3" fill="#000000" stroke="none" d="M 1342.804688 1171.850342 C 1259.239258 1192.906738 1157.230469 1144.453613 1133.37793 1058.672119 C 1129.925781 1046.790039 1128.506836 1034.428467 1128.800781 1022.232178 C 1142.795898 1042.351807 1155.65332 1060.52124 1170.94043 1075.966553 C 1217.801758 1125.027832 1279.631836 1148.378662 1342.804688 1171.850342 L 1342.804688 1171.850342 Z"/>
            </g>
            <path id="path4" fill="none" stroke="none" d="M 1342.804688 1171.850342 C 1342.804688 1171.850342 1171.399414 1169.791504 1128.800781 1022.232178"/>
        </g>
        <path id="path5" fill="#ffffff" stroke="#000000" stroke-width="36.268963" d="M 1510.503906 1868.891357 C 1510.503906 1868.891357 1574.27832 2143.117676 1342.804688 2178.325439 C 1099.150391 2215.386475 1411.655273 1856.136597 1411.655273 1856.136597 L 1510.503906 1868.891357 Z"/>
        <path id="path6" fill="#ffffff" stroke="#000000" stroke-width="36.268963" d="M 767.630859 1606.597656 C 767.630859 1606.597656 678.979492 1718.168945 697.390625 1859.325195 C 716.523438 2006.004272 837.693359 2066.589355 837.693359 2066.589355 C 837.693359 2066.589355 754.787109 2181.381348 767.542969 2350.381348 C 767.542969 2350.381348 601.730469 2312.117188 486.938477 2519.381348 C 398.823242 2678.478271 671.881836 2784.041504 671.881836 2784.041504 C 671.881836 2784.041504 975.969727 2692.437012 1038.579102 2653.305664 C 1140.617188 2589.532227 1370.202148 2321.683594 1433.975586 1900.777954 L 767.630859 1606.597656 Z"/>
        <g id="g3">
            <g id="g4">
                <path id="path7" fill="#ffffff" stroke="#000000" stroke-width="26.377428" d="M 1012.8125 3109.393799 L 1141.648438 3109.393799"/>
                <path id="path8" fill="#ffffff" stroke="#000000" stroke-width="26.377428" d="M 1019.241211 3044.098145 L 1029.442383 3067.23291 L 1054.578125 3064.499512 C 1068.511719 3062.984375 1077.610352 3078.743164 1069.331055 3090.052734 L 1054.395508 3110.454346 L 1069.331055 3130.855713 C 1077.610352 3142.165283 1068.511719 3157.924072 1054.578125 3156.408936 L 1029.442383 3153.675537 L 1019.241211 3176.810547 C 1013.586914 3189.635254 995.389648 3189.635254 989.735352 3176.810547 L 979.53418 3153.675537 L 954.398438 3156.408936 C 940.464844 3157.924072 931.366211 3142.165283 939.645508 3130.855713 L 954.581055 3110.454346 L 939.645508 3090.052734 C 931.366211 3078.743164 940.464844 3062.984375 954.398438 3064.499512 L 979.53418 3067.23291 L 989.735352 3044.098145 C 995.389648 3031.273438 1013.586914 3031.273438 1019.241211 3044.098145 Z"/>
                <path id="path9" fill="#000000" stroke="none" d="M 1021.135742 3110.781006 C 1021.135742 3120.741455 1013.061523 3128.815918 1003.100586 3128.815918 C 993.140625 3128.815918 985.06543 3120.741455 985.06543 3110.781006 C 985.06543 3100.820801 993.140625 3092.746094 1003.100586 3092.746094 C 1013.061523 3092.746094 1021.135742 3100.820801 1021.135742 3110.781006 Z"/>
            </g>
            <clipPath id="clipPath1">
                <path d="M 1037.9375 2824.885986 C 1088.191406 2800.395996 1227.24707 2745.689453 1438.359375 2763.635254 C 1455.356445 2765.080078 1467.830078 2780.200684 1466.063477 2797.167236 L 1441.487305 3033.092285 C 1441.487305 3033.092285 1522.098633 3063.321289 1584.908203 3145.382324 C 1590.807617 3153.089111 1599.679688 3157.932617 1609.344727 3158.815186 C 1614.849609 3159.318359 1621.606445 3160.113281 1629.209961 3161.370117 C 1679.345703 3169.657959 1716.173828 3212.949219 1716.173828 3263.765625 L 1716.173828 3310.820068 C 1716.173828 3327.429688 1702.708984 3340.894287 1686.099609 3340.894287 L 1390.134766 3340.894287 C 1373.15918 3340.894287 1358.524414 3332.167969 1345.421875 3321.374268 C 1322.180664 3302.228516 1291.660156 3280.031738 1289.637695 3278.026611 C 1283.305664 3271.745605 1272.237305 3279.208496 1272.237305 3288.127686 L 1272.237305 3319.074219 C 1272.237305 3331.125 1262.467773 3340.894287 1250.416992 3340.894287 L 1118.193359 3340.894287 C 1106.591797 3340.894287 1097.015625 3331.837158 1096.404297 3320.251953 C 1094.525391 3284.65332 1092.040039 3211.220215 1100.211914 3166.273193 C 1102.333008 3154.611328 1104.350586 3144.367432 1106.230469 3135.425049 C 1113.474609 3100.94873 1109.09668 3065.038818 1093.796875 3033.30542 C 1075.087891 2994.499512 1048.818359 2934.40332 1023.953125 2858.084961 C 1019.717773 2845.082031 1025.644531 2830.876953 1037.9375 2824.885986 Z"/>
            </clipPath>
            <g id="g5" clip-path="url(#clipPath1)">
                <path id="path10" fill="#ffffff" stroke="#000000" stroke-width="36.268963" d="M 1037.9375 2824.885986 C 1088.191406 2800.395996 1227.24707 2745.689453 1438.359375 2763.635254 C 1455.356445 2765.080078 1467.830078 2780.200684 1466.063477 2797.167236 L 1441.487305 3033.092285 C 1441.487305 3033.092285 1522.098633 3063.321289 1584.908203 3145.382324 C 1590.807617 3153.089111 1599.679688 3157.932617 1609.344727 3158.815186 C 1614.849609 3159.318359 1621.606445 3160.113281 1629.209961 3161.370117 C 1679.345703 3169.657959 1716.173828 3212.949219 1716.173828 3263.765625 L 1716.173828 3310.820068 C 1716.173828 3327.429688 1702.708984 3340.894287 1686.099609 3340.894287 L 1390.134766 3340.894287 C 1373.15918 3340.894287 1358.524414 3332.167969 1345.421875 3321.374268 C 1322.180664 3302.228516 1291.660156 3280.031738 1289.637695 3278.026611 C 1283.305664 3271.745605 1272.237305 3279.208496 1272.237305 3288.127686 L 1272.237305 3319.074219 C 1272.237305 3331.125 1262.467773 3340.894287 1250.416992 3340.894287 L 1118.193359 3340.894287 C 1106.591797 3340.894287 1097.015625 3331.837158 1096.404297 3320.251953 C 1094.525391 3284.65332 1092.040039 3211.220215 1100.211914 3166.273193 C 1102.333008 3154.611328 1104.350586 3144.367432 1106.230469 3135.425049 C 1113.474609 3100.94873 1109.09668 3065.038818 1093.796875 3033.30542 C 1075.087891 2994.499512 1048.818359 2934.40332 1023.953125 2858.084961 C 1019.717773 2845.082031 1025.644531 2830.876953 1037.9375 2824.885986 Z"/>
                <path id="path11" fill="#ffffff" stroke="#000000" stroke-width="26.377428" d="M 1072.46582 3205.117676 C 1081.793945 3205.117676 1247.931641 3209.037842 1300.69043 3210.288086 C 1311.087891 3210.534668 1321.226563 3213.336182 1330.277344 3218.459961 C 1350.698242 3230.019043 1382.244141 3251.612793 1399.209961 3263.440186 C 1406.936523 3268.82666 1416.112305 3271.708008 1425.53125 3271.708008 L 1750.264648 3271.708008"/>
                <path id="path12" fill="#ffffff" stroke="#000000" stroke-width="26.377428" d="M 1257.655273 2892.159424 L 1257.655273 2892.159424 C 1235.708008 2895.625977 1215.106445 2880.644775 1211.639648 2858.69751 L 1197.137695 2766.88623 L 1276.615234 2754.33252 L 1291.117188 2846.143555 C 1294.583984 2868.09082 1279.602539 2888.692627 1257.655273 2892.159424 Z"/>
                <path id="path13" fill="#ffffff" stroke="#000000" stroke-width="26.377428" d="M 1068.303711 3101.069824 C 1068.303711 3101.069824 1318.017578 3098.29541 1331.890625 3065 C 1349.308594 3023.198242 1352.424805 2964.262939 1353.632813 2935.454346 C 1354.075195 2924.891602 1362.109375 2916.208496 1372.607422 2914.966553 C 1394.188477 2912.413574 1435.171875 2909.905518 1498.367188 2915.171875"/>
            </g>
        </g>
        <g id="g6">
            <g id="g7">
                <path id="path14" fill="#ffffff" stroke="#000000" stroke-width="26.377428" d="M 231.236328 2508.487793 L 273.118164 2630.326172"/>
                <path id="path15" fill="#ffffff" stroke="#000000" stroke-width="26.377428" d="M 295.074219 2493.341064 L 276.512695 2510.508789 L 287.268555 2533.390625 C 293.231445 2546.074951 281.286133 2559.802246 267.899414 2555.649414 L 243.750977 2548.157715 L 229.313477 2568.913818 C 221.308594 2580.419922 203.448242 2576.938965 200.351563 2563.269043 L 194.765625 2538.610107 L 169.571289 2536.484375 C 155.604492 2535.305664 149.688477 2518.097412 159.978516 2508.580811 L 178.540039 2491.413086 L 167.785156 2468.53125 C 161.821289 2455.84668 173.767578 2442.119629 187.15332 2446.272461 L 211.301758 2453.763672 L 225.740234 2433.007813 C 233.744141 2421.501953 251.604492 2424.98291 254.702148 2438.652832 L 260.289063 2463.311768 L 285.483398 2465.4375 C 299.449219 2466.616211 305.364258 2483.824219 295.074219 2493.341064 Z"/>
                <path id="path16" fill="#000000" stroke="none" d="M 232.629883 2516.810547 C 223.209961 2520.04834 212.949219 2515.037598 209.710938 2505.618164 C 206.472656 2496.19873 211.484375 2485.937744 220.90332 2482.699707 C 230.323242 2479.461914 240.583008 2484.4729 243.822266 2493.89209 C 247.060547 2503.311523 242.048828 2513.572266 232.629883 2516.810547 Z"/>
            </g>
            <clipPath id="clipPath2">
                <path d="M 508.458008 2439.759033 C 547.954102 2479.321533 644.894531 2593.040039 696.553711 2798.519043 C 700.712891 2815.0625 690.469727 2831.774902 673.849609 2835.619385 L 442.75 2889.074951 C 442.75 2889.074951 440.369141 2975.134521 383.182617 3061.209473 C 377.8125 3069.293457 376.117188 3079.258301 378.423828 3088.685059 C 379.738281 3094.055664 381.182617 3100.703613 382.46582 3108.302002 C 390.927734 3158.409424 361.958984 3207.310059 313.90332 3223.829834 L 269.404297 3239.126465 C 253.697266 3244.526123 236.586914 3236.169922 231.1875 3220.462402 L 134.972656 2940.57373 C 129.454102 2924.519531 132.949219 2907.843994 138.896484 2891.943848 C 149.446289 2863.740479 160.515625 2827.661621 161.754883 2825.0979 C 165.636719 2817.067871 154.980469 2809.0271 146.545898 2811.92627 L 117.280273 2821.986572 C 105.883789 2825.904297 93.469727 2819.841553 89.551758 2808.444824 L 46.567383 2683.403564 C 42.795898 2672.432129 48.248047 2660.431641 59.004883 2656.087402 C 92.05957 2642.737793 160.695313 2616.514648 205.858398 2609.631348 C 217.576172 2607.845215 227.919922 2606.424316 236.987305 2605.294434 C 271.946289 2600.937988 304.482422 2585.123047 329.518555 2560.338379 C 360.133789 2530.029541 408.425781 2485.650879 472.515625 2437.327148 C 483.436523 2429.09375 498.795898 2430.080566 508.458008 2439.759033 Z"/>
            </clipPath>
            <g id="g8" clip-path="url(#clipPath2)">
                <path id="path17" fill="#ffffff" stroke="#000000" stroke-width="36.268963" d="M 508.458008 2439.759033 C 547.954102 2479.321533 644.894531 2593.040039 696.553711 2798.519043 C 700.712891 2815.0625 690.469727 2831.774902 673.849609 2835.619385 L 442.75 2889.074951 C 442.75 2889.074951 440.369141 2975.134521 383.182617 3061.209473 C 377.8125 3069.293457 376.117188 3079.258301 378.423828 3088.685059 C 379.738281 3094.055664 381.182617 3100.703613 382.46582 3108.302002 C 390.927734 3158.409424 361.958984 3207.310059 313.90332 3223.829834 L 269.404297 3239.126465 C 253.697266 3244.526123 236.586914 3236.169922 231.1875 3220.462402 L 134.972656 2940.57373 C 129.454102 2924.519531 132.949219 2907.843994 138.896484 2891.943848 C 149.446289 2863.740479 160.515625 2827.661621 161.754883 2825.0979 C 165.636719 2817.067871 154.980469 2809.0271 146.545898 2811.92627 L 117.280273 2821.986572 C 105.883789 2825.904297 93.469727 2819.841553 89.551758 2808.444824 L 46.567383 2683.403564 C 42.795898 2672.432129 48.248047 2660.431641 59.004883 2656.087402 C 92.05957 2642.737793 160.695313 2616.514648 205.858398 2609.631348 C 217.576172 2607.845215 227.919922 2606.424316 236.987305 2605.294434 C 271.946289 2600.937988 304.482422 2585.123047 329.518555 2560.338379 C 360.133789 2530.029541 408.425781 2485.650879 472.515625 2437.327148 C 483.436523 2429.09375 498.795898 2430.080566 508.458008 2439.759033 Z"/>
                <path id="path18" fill="#ffffff" stroke="#000000" stroke-width="26.377428" d="M 160.103516 2596.020264 C 163.135742 2604.841797 213.438477 2763.22998 229.407227 2813.529297 C 232.554688 2823.442871 233.200195 2833.940918 231.297852 2844.166016 C 227.003906 2867.235107 216.838867 2904.087891 211.169922 2923.976807 C 208.587891 2933.034424 208.845703 2942.648926 211.907227 2951.556152 L 317.474609 3258.651123"/>
                <path id="path19" fill="#ffffff" stroke="#000000" stroke-width="26.377428" d="M 516.265625 2669.412109 L 516.265625 2669.411621 C 505.852539 2649.783691 513.323242 2625.430176 532.951172 2615.01709 L 615.060547 2571.456543 L 652.770508 2642.536377 L 570.660156 2686.097168 C 551.032227 2696.510254 526.679688 2689.040039 516.265625 2669.412109 Z"/>
                <path id="path20" fill="#ffffff" stroke="#000000" stroke-width="26.377428" d="M 257.147461 2558.259766 C 257.147461 2558.259766 340.949219 2793.508301 376.946289 2795.804199 C 422.140625 2798.686279 478.886719 2782.474121 506.523438 2774.250977 C 516.65625 2771.23584 527.480469 2776.010254 532.067383 2785.534912 C 541.498047 2805.114014 557.192383 2843.05542 572.755859 2904.530273"/>
            </g>
        </g>
        <g id="g9">
            <clipPath id="clipPath3">
                <path d="M 1280.544922 226.401611 C 1280.544922 226.401611 1307.227539 268.20459 1316.790039 349.96582 C 1316.790039 349.96582 1415.8125 404.240234 1416.71582 452.530273 C 1417.31543 484.652344 1375.797852 498.282227 1375.797852 498.282227 C 1375.797852 498.282227 1458.788086 620.147217 1355.65918 710.435791 C 1264.28125 790.436768 1023.126953 800.528076 965.275391 628.089844 C 965.275391 628.089844 706.28418 353.373779 1005.167969 183.903076 C 1235.630859 53.228027 1280.544922 226.401611 1280.544922 226.401611 Z"/>
            </clipPath>
            <g id="g10" clip-path="url(#clipPath3)">
                <path id="path21" fill="#ffffff" stroke="#000000" stroke-width="36.268963" d="M 1280.544922 226.401611 C 1280.544922 226.401611 1307.227539 268.20459 1316.790039 349.96582 C 1316.790039 349.96582 1415.8125 404.240234 1416.71582 452.530273 C 1417.31543 484.652344 1375.797852 498.282227 1375.797852 498.282227 C 1375.797852 498.282227 1458.788086 620.147217 1355.65918 710.435791 C 1264.28125 790.436768 1023.126953 800.528076 965.275391 628.089844 C 965.275391 628.089844 706.28418 353.373779 1005.167969 183.903076 C 1235.630859 53.228027 1280.544922 226.401611 1280.544922 226.401611 Z"/>
                <g id="g11">
                    <path id="path22" fill="#ffffff" stroke="none" d="M 1129.056641 415.72168 C 1129.056641 415.72168 1183.209961 386.871338 1250.038086 391.081299 C 1252.80957 391.255859 1253.626953 388.389648 1251.616211 386.473145 C 1237.758789 373.260742 1202.273438 357.403076 1173.396484 361.199707"/>
                    <path id="path23" fill="#000000" stroke="none" d="M 1129.056641 415.72168 C 1158.876953 381.826416 1207.151367 369.053711 1251.087891 373.692383 C 1245.458008 372.912842 1237.320313 378.385498 1236.099609 384.871582 C 1234.347656 392.278564 1237.926758 396.863525 1239.951172 398.668701 C 1222.200195 381.025391 1198.211914 368.360352 1173.396484 361.198975 C 1201.179688 347.428711 1238.97168 355.217773 1263.219727 374.222168 C 1272.683594 382.131592 1271.974609 399.563965 1260.058594 405.885498 C 1255.831055 408.323975 1251.535156 408.60083 1248.90332 408.466797 C 1243.760742 408.644531 1238.556641 408.584473 1233.424805 408.852295 C 1198.189453 409.818604 1165.714844 414.12085 1129.056641 415.72168 L 1129.056641 415.72168 Z"/>
                </g>
                <g id="g12">
                    <path id="path24" fill="#ffffff" stroke="none" d="M 1256.682617 324.827148 C 1256.682617 324.827148 1207.322266 294.657715 1131.790039 330.417725"/>
                    <path id="path25" fill="#000000" stroke="none" d="M 1255.737305 326.374512 C 1241.491211 330.404541 1230.129883 333.243408 1216.079102 332.523193 C 1208.90332 331.493408 1202.199219 328.433105 1194.87207 327.787842 C 1185.035156 327.090576 1174.442383 326.986816 1164.508789 327.795898 C 1155.287109 328.199219 1141.858398 330.531006 1132.566406 332.056641 C 1132.566406 332.056641 1131.013672 328.778564 1131.013672 328.778564 C 1148.920898 314.248291 1170.103516 303.549072 1192.792969 298.847412 C 1204.492188 296.571289 1217.274414 292.155762 1229.124023 296.945557 C 1235.100586 299.077148 1240.837891 302.195068 1245.689453 306.37085 C 1250.625977 310.707764 1255.117188 315.901367 1257.628906 323.279785 L 1255.737305 326.374512 L 1255.737305 326.374512 Z"/>
                </g>
                <g id="g13">
                    <path id="path26" fill="#000000" stroke="none" d="M 1271.649414 571.855957 C 1309.241211 574.336182 1342.551758 573.722656 1378.861328 570.874512 C 1415.271484 567.874268 1450.220703 560.713867 1486.96875 558.551025 C 1435.884766 613.820068 1326.707031 628.078369 1271.649414 571.855957 L 1271.649414 571.855957 Z"/>
                </g>
                <path id="path27" fill="none" stroke="none" d="M 1271.649414 571.855957 C 1271.649414 571.855957 1358.666016 620.231689 1486.96875 558.552246"/>
            </g>
            <path id="path28" fill="#000000" stroke="none" d="M 1014.675781 419.871582 C 1011.160156 404.622559 1001.90332 379.470947 978.706055 375.28125 C 945.029297 369.198242 861.172852 399.548584 902.676758 497.268311 C 919.099609 535.937744 957.69043 544.124756 976.146484 545.792969 C 981.151367 546.245361 984.628906 551.067627 983.451172 555.953857 C 972.628906 600.914063 992.180664 648.784912 992.180664 648.784912 C 992.180664 648.784912 926.046875 697.284668 822.28418 614.373047 C 744.700195 552.378906 620.378906 301.398193 838.004883 121.202148 C 1018.52832 -28.273682 1270.131836 47.757813 1322.135742 161.501709 C 1357.130859 238.044189 1310.847656 275.830078 1310.847656 275.830078 C 1310.847656 275.830078 1225.988281 228.710449 1128.90918 236.883789 C 1094.927734 239.744629 1071.632813 272.477783 1080.756836 305.336426 C 1088.762695 334.170898 1099.161133 367.477539 1094.722656 394.853516 C 1088.188477 435.164063 1063.357422 466.431152 1037.561523 482.685791 C 1024.871094 490.681885 1008.640625 480.186035 1010.973633 465.369385 C 1013.767578 447.624512 1016.34082 427.09375 1014.675781 419.871582 Z"/>
            <path id="path29" fill="#000000" stroke="none" d="M 872.751953 29.49585 C 922.482422 74.839111 914.774414 164.266113 855.536133 229.236572 C 796.296875 294.206787 707.959961 310.11792 658.229492 264.774658 C 608.499023 219.431396 616.207031 130.004395 675.445313 65.033936 C 734.68457 0.063477 823.021484 -15.847412 872.751953 29.49585 Z"/>
            <g id="g14">
                <path id="path30" fill="#ffffff" stroke="none" d="M 973.463867 409.35376 C 973.463867 409.35376 928.942383 420.195068 932.713867 458.327148 C 935.358398 485.074707 962.673828 496.496826 962.673828 496.496826"/>
                <path id="path31" fill="#000000" stroke="none" d="M 973.463867 409.35376 C 952.30957 426.10083 933.503906 446.34082 945.648438 473.52417 C 949.245117 481.353027 955.168945 489.088867 962.673828 496.496826 C 939.587891 494.731445 920.130859 471.407715 923.063477 447.752686 C 924.925781 423.484863 950.142578 405.79834 973.463867 409.35376 L 973.463867 409.35376 Z"/>
            </g>
            <path id="path32" fill="none" stroke="none" d="M 973.463867 409.35376 C 973.463867 409.35376 928.942383 420.195068 932.713867 458.327148 C 935.358398 485.074707 962.673828 496.496826 962.673828 496.496826"/>
        </g>
        <g id="g15">
            <path id="path33" fill="#ffffff" stroke="#000000" stroke-width="36.268963" d="M 1827.737305 1878.226929 L 3372.183594 1979.42041 C 3389.632813 1980.563843 3401.890625 1997.083496 3397.931641 2014.115845 L 3251.363281 2644.355469 C 3244.300781 2674.724854 3217.236328 2696.217773 3186.056641 2696.217773 L 2036.242188 2696.217773 L 1827.737305 1878.226929 Z"/>
            <g id="g16">
                <path id="path34" fill="#ffffff" stroke="#000000" stroke-width="36.268963" d="M 2272.597656 3232.050537 C 2272.597656 3292.807129 2223.345703 3342.059814 2162.587891 3342.059814 C 2101.832031 3342.059814 2052.578125 3292.807129 2052.578125 3232.050537 C 2052.578125 3171.294189 2101.832031 3122.04126 2162.587891 3122.04126 C 2223.345703 3122.04126 2272.597656 3171.294189 2272.597656 3232.050537 Z"/>
                <path id="path35" fill="#ffffff" stroke="#000000" stroke-width="26.377428" d="M 2212.013672 3230.456299 C 2212.013672 3256.87207 2190.599609 3278.286621 2164.183594 3278.286621 C 2137.767578 3278.286621 2116.351563 3256.87207 2116.351563 3230.456299 C 2116.351563 3204.040283 2137.767578 3182.625977 2164.183594 3182.625977 C 2190.599609 3182.625977 2212.013672 3204.040283 2212.013672 3230.456299 Z"/>
                <path id="path36" fill="#ffffff" stroke="#000000" stroke-width="36.268963" d="M 3111.21875 3228.862061 C 3111.21875 3289.618408 3061.966797 3338.871338 3001.208984 3338.871338 C 2940.453125 3338.871338 2891.199219 3289.618408 2891.199219 3228.862061 C 2891.199219 3168.105225 2940.453125 3118.852539 3001.208984 3118.852539 C 3061.966797 3118.852539 3111.21875 3168.105225 3111.21875 3228.862061 Z"/>
                <path id="path37" fill="#ffffff" stroke="#000000" stroke-width="26.377428" d="M 3050.634766 3227.267578 C 3050.634766 3253.683594 3029.220703 3275.097656 3002.804688 3275.097656 C 2976.388672 3275.097656 2954.972656 3253.683594 2954.972656 3227.267578 C 2954.972656 3200.851563 2976.388672 3179.4375 3002.804688 3179.4375 C 3029.220703 3179.4375 3050.634766 3200.851563 3050.634766 3227.267578 Z"/>
                <path id="path38" fill="#ffffff" stroke="#000000" stroke-width="36.268963" d="M 2181.341797 3187.40918 L 2141.626953 3187.40918 C 2130.349609 3187.40918 2120.71875 3179.278076 2118.826172 3168.162354 L 2101.207031 3064.64502 L 2223.970703 3064.64502 L 2204.058594 3168.631348 C 2201.970703 3179.529053 2192.439453 3187.40918 2181.341797 3187.40918 Z"/>
                <path id="path39" fill="#ffffff" stroke="#000000" stroke-width="36.268963" d="M 3019.964844 3187.40918 L 2980.248047 3187.40918 C 2968.972656 3187.40918 2959.339844 3179.278076 2957.447266 3168.162354 L 2939.828125 3064.64502 L 3062.591797 3064.64502 L 3042.681641 3168.631348 C 3040.59375 3179.529053 3031.060547 3187.40918 3019.964844 3187.40918 Z"/>
                <path id="path40" fill="#ffffff" stroke="#000000" stroke-width="36.268963" d="M 3111.337891 3015.301514 L 2095.917969 3015.301514 C 2031.669922 3015.301514 1979.585938 2959.497559 1979.585938 2890.659668 C 1979.585938 2821.821533 2031.669922 2766.017334 2095.917969 2766.017334 L 2581.787109 2766.017334 C 2599.816406 2766.017334 2614.429688 2751.402832 2614.429688 2733.374756 L 2614.429688 2696.217773 L 2117.507813 2696.217773 C 2112.634766 2696.217773 2108.390625 2692.896729 2107.220703 2688.167969 L 1866.577148 1719.023438 L 1798.481445 1759.699707 L 2035.060547 2694.807129 C 2036.314453 2699.76709 2033.779297 2704.9021 2029.070313 2706.900879 C 1960.185547 2736.140625 1911.448242 2808.110596 1911.448242 2892.321533 C 1911.448242 3001.864746 1993.890625 3090.74292 2095.917969 3091.703857 L 3111.337891 3091.748779 C 3132.447266 3091.748779 3149.560547 3074.635498 3149.560547 3053.525391 C 3149.560547 3032.414795 3132.447266 3015.301514 3111.337891 3015.301514 Z"/>
                <g id="g17">
                    <path id="path41" fill="#ffffff" stroke="#000000" stroke-width="26.377428" d="M 1971.267578 2080.938232 L 3361.53125 2163.84375"/>
                    <path id="path42" fill="#ffffff" stroke="#000000" stroke-width="26.377428" d="M 2095.625 2645.333984 L 3249.927734 2645.333984"/>
                    <path id="path43" fill="#ffffff" stroke="#000000" stroke-width="26.377428" d="M 2140.267578 1899.183594 L 2267.814453 2699.541504"/>
                    <path id="path44" fill="#ffffff" stroke="#000000" stroke-width="26.377428" d="M 2395.361328 1915.127075 L 2459.134766 2696.353027"/>
                    <path id="path45" fill="#ffffff" stroke="#000000" stroke-width="26.377428" d="M 2880.041016 1947.013794 L 2819.455078 2696.353027"/>
                    <path id="path46" fill="#ffffff" stroke="#000000" stroke-width="26.377428" d="M 3122.380859 1947.013794 L 3061.794922 2696.353027"/>
                    <path id="path47" fill="#ffffff" stroke="#000000" stroke-width="26.377428" d="M 2640.888672 1931.070435 L 2640.888672 2696.353027"/>
                    <path id="path48" fill="#ffffff" stroke="#000000" stroke-width="26.377428" d="M 2054.173828 2460.390625 L 3288.191406 2482.711426"/>
                </g>
                <path id="path49" fill="#ffffff" stroke="#000000" stroke-width="36.268963" d="M 1864.447266 1717.429199 C 1864.447266 1753.530762 1835.180664 1782.796997 1799.079102 1782.796997 C 1762.977539 1782.796997 1733.710938 1753.530762 1733.710938 1717.429199 C 1733.710938 1681.327637 1762.977539 1652.061279 1799.079102 1652.061279 C 1835.180664 1652.061279 1864.447266 1681.327637 1864.447266 1717.429199 Z"/>
            </g>
        </g>
        <path id="path50" fill="#ffffff" stroke="#000000" stroke-width="36.268963" d="M 1650.805664 1693.513916 C 1360.056641 1649.162598 1191.162109 1580.059082 1129.410156 1550.939453 C 1112.567383 1542.99707 1097.025391 1532.542236 1083.415039 1519.834229 C 620.151367 1087.315918 713.492188 720.223389 955.674805 743.28833 C 1138.59668 760.709717 1255.421875 1222.303711 1274.853516 1304.719727 C 1276.501953 1311.712646 1282.914063 1316.48291 1290.091797 1316.153076 C 1322.952148 1314.643066 1416.820313 1319.300537 1516.881836 1406.533203 C 1601.858398 1480.616455 1711.390625 1572.344482 1711.390625 1572.344482 C 1711.390625 1572.344482 1854.880859 1559.5896 1880.390625 1575.532959 C 1905.900391 1591.476318 1953.730469 1661.627197 1950.541016 1683.947998 C 1947.352539 1706.268799 1889.957031 1801.584351 1864.447266 1809.728516 C 1838.9375 1817.872314 1816.617188 1782.796997 1848.503906 1734.966797 C 1884.966797 1680.270996 1829.47168 1650.302246 1794.296875 1652.061279 C 1730.522461 1655.25 1727.333984 1725.400879 1727.333984 1725.400879 C 1670.916016 1752.504395 1650.805664 1693.513916 1650.805664 1693.513916 Z"/>
        <clipPath id="clipPath4">
            <path d="M 1592.521484 1883.918457 C 1582.208008 1925.401855 1540.234375 1949.880737 1501.739258 1936.860596 L 748.020508 1681.928223 C 712.333008 1669.755371 693.789063 1629.443848 706.597656 1591.890137 L 706.597656 1591.889893 C 720.211914 1551.980225 761.992188 1530.114502 799.917969 1543.051025 L 1548.676758 1798.822754 C 1582.600586 1810.411255 1601.619141 1847.322021 1592.521484 1883.918213 L 1592.521484 1883.918457 Z"/>
        </clipPath>
        <g id="g18" clip-path="url(#clipPath4)">
            <path id="path51" fill="#ffffff" stroke="#000000" stroke-width="36.268963" d="M 1592.521484 1883.918457 C 1582.208008 1925.401855 1540.234375 1949.880737 1501.739258 1936.860596 L 748.020508 1681.928223 C 712.333008 1669.755371 693.789063 1629.443848 706.597656 1591.890137 L 706.597656 1591.889893 C 720.211914 1551.980225 761.992188 1530.114502 799.917969 1543.051025 L 1548.676758 1798.822754 C 1582.600586 1810.411255 1601.619141 1847.322021 1592.521484 1883.918213 L 1592.521484 1883.918457 Z"/>
            <path id="path52" fill="#ffffff" stroke="#000000" stroke-width="26.377428" d="M 1384.213867 1710.731934 C 1384.213867 1710.731934 1344.121094 1858.499878 1424.920898 1953.775757"/>
            <path id="path53" fill="#ffffff" stroke="#000000" stroke-width="26.377428" d="M 1562.780273 1761.750732 C 1562.780273 1761.750732 1522.6875 1909.518677 1603.487305 2004.794556"/>
            <path id="path54" fill="#ffffff" stroke="#000000" stroke-width="26.377428" d="M 1196.082031 1640.581055 C 1196.082031 1640.581055 1155.989258 1788.348877 1236.789063 1883.624756"/>
            <path id="path55" fill="#ffffff" stroke="#000000" stroke-width="26.377428" d="M 992.006836 1589.562256 C 992.006836 1589.562256 951.915039 1737.330078 1032.713867 1832.605957"/>
            <path id="path56" fill="#ffffff" stroke="#000000" stroke-width="26.377428" d="M 803.875 1519.411377 C 803.875 1519.411377 763.783203 1667.179443 844.582031 1762.455078"/>
        </g>
    </g>
</svg>
