<?xml version="1.0" encoding="UTF-8"?>
<svg xmlns="http://www.w3.org/2000/svg" width="784" height="1620" viewBox="0 0 784 1620" fill="none">
  <rect width="100%" height="100%" fill="#faf8f1" />
  <text x="32" y="48" font-family="'Gotham Condensed', 'Gotham', Arial, sans-serif" font-size="34" font-weight="900" fill="#1f1d18">AVRO ICON SHEET</text>
  <text x="32" y="72" font-family="'Gotham', Arial, sans-serif" font-size="13" font-weight="500" fill="#666256">43 icons — lucide-react, 24×24, stroke 1.6 — drop this file into Figma to import all icons at once</text>
  <text x="32" y="114" font-family="'Gotham Condensed', 'Gotham', Arial, sans-serif" font-size="22" font-weight="900" fill="#1f1d18" letter-spacing="0.5">FOUNDATIONAL + STATE</text>
  <line x1="32" y1="122" x2="752" y2="122" stroke="#e6e3da" stroke-width="1" />
  <rect x="52" y="136" width="80" height="80" rx="10" fill="#ffffff" stroke="#e6e3da" stroke-width="1" />
  <g transform="translate(68, 152) scale(2)" fill="none" stroke="#1f1d18" stroke-width="1.6" stroke-linecap="round" stroke-linejoin="round">
    <path d="M11 20A7 7 0 0 1 9.8 6.1C15.5 5 17 4.48 19 2c1 2 2 4.18 2 8 0 5.5-4.78 10-10 10Z" />
    <path d="M2 21c0-3 1.85-5.36 5.08-6C9.5 14.52 12 13 13 12" />
  </g>
  <text x="92" y="230" font-family="'Gotham', Arial, sans-serif" font-size="11" font-weight="600" fill="#3a3833" text-anchor="middle">leaf</text>
  <rect x="172" y="136" width="80" height="80" rx="10" fill="#ffffff" stroke="#e6e3da" stroke-width="1" />
  <g transform="translate(188, 152) scale(2)" fill="none" stroke="#1f1d18" stroke-width="1.6" stroke-linecap="round" stroke-linejoin="round">
    <path d="M14 2v6a2 2 0 0 0 .245.96l5.51 10.08A2 2 0 0 1 18 22H6a2 2 0 0 1-1.755-2.96l5.51-10.08A2 2 0 0 0 10 8V2" />
    <path d="M6.453 15h11.094" />
    <path d="M8.5 2h7" />
  </g>
  <text x="212" y="230" font-family="'Gotham', Arial, sans-serif" font-size="11" font-weight="600" fill="#3a3833" text-anchor="middle">flask</text>
  <rect x="292" y="136" width="80" height="80" rx="10" fill="#ffffff" stroke="#e6e3da" stroke-width="1" />
  <g transform="translate(308, 152) scale(2)" fill="none" stroke="#1f1d18" stroke-width="1.6" stroke-linecap="round" stroke-linejoin="round">
    <path d="M4.5 3h15" />
    <path d="M6 3v16a2 2 0 0 0 2 2h8a2 2 0 0 0 2-2V3" />
    <path d="M6 14h12" />
  </g>
  <text x="332" y="230" font-family="'Gotham', Arial, sans-serif" font-size="11" font-weight="600" fill="#3a3833" text-anchor="middle">beaker</text>
  <rect x="412" y="136" width="80" height="80" rx="10" fill="#ffffff" stroke="#e6e3da" stroke-width="1" />
  <g transform="translate(428, 152) scale(2)" fill="none" stroke="#1f1d18" stroke-width="1.6" stroke-linecap="round" stroke-linejoin="round">
    <path d="M20 13c0 5-3.5 7.5-7.66 8.95a1 1 0 0 1-.67-.01C7.5 20.5 4 18 4 13V6a1 1 0 0 1 1-1c2 0 4.5-1.2 6.24-2.72a1.17 1.17 0 0 1 1.52 0C14.51 3.81 17 5 19 5a1 1 0 0 1 1 1z" />
  </g>
  <text x="452" y="230" font-family="'Gotham', Arial, sans-serif" font-size="11" font-weight="600" fill="#3a3833" text-anchor="middle">shield</text>
  <rect x="532" y="136" width="80" height="80" rx="10" fill="#ffffff" stroke="#e6e3da" stroke-width="1" />
  <g transform="translate(548, 152) scale(2)" fill="none" stroke="#1f1d18" stroke-width="1.6" stroke-linecap="round" stroke-linejoin="round">
    <path d="M20 13c0 5-3.5 7.5-7.66 8.95a1 1 0 0 1-.67-.01C7.5 20.5 4 18 4 13V6a1 1 0 0 1 1-1c2 0 4.5-1.2 6.24-2.72a1.17 1.17 0 0 1 1.52 0C14.51 3.81 17 5 19 5a1 1 0 0 1 1 1z" />
    <path d="m9 12 2 2 4-4" />
  </g>
  <text x="572" y="230" font-family="'Gotham', Arial, sans-serif" font-size="11" font-weight="600" fill="#3a3833" text-anchor="middle">shield-check</text>
  <rect x="652" y="136" width="80" height="80" rx="10" fill="#ffffff" stroke="#e6e3da" stroke-width="1" />
  <g transform="translate(668, 152) scale(2)" fill="none" stroke="#1f1d18" stroke-width="1.6" stroke-linecap="round" stroke-linejoin="round">
    <path d="M12 18V5" />
    <path d="M15 13a4.17 4.17 0 0 1-3-4 4.17 4.17 0 0 1-3 4" />
    <path d="M17.598 6.5A3 3 0 1 0 12 5a3 3 0 1 0-5.598 1.5" />
    <path d="M17.997 5.125a4 4 0 0 1 2.526 5.77" />
    <path d="M18 18a4 4 0 0 0 2-7.464" />
    <path d="M19.967 17.483A4 4 0 1 1 12 18a4 4 0 1 1-7.967-.517" />
    <path d="M6 18a4 4 0 0 1-2-7.464" />
    <path d="M6.003 5.125a4 4 0 0 0-2.526 5.77" />
  </g>
  <text x="692" y="230" font-family="'Gotham', Arial, sans-serif" font-size="11" font-weight="600" fill="#3a3833" text-anchor="middle">brain</text>
  <rect x="52" y="256" width="80" height="80" rx="10" fill="#ffffff" stroke="#e6e3da" stroke-width="1" />
  <g transform="translate(68, 272) scale(2)" fill="none" stroke="#1f1d18" stroke-width="1.6" stroke-linecap="round" stroke-linejoin="round">
    <circle cx="12" cy="12" r="10" />
    <circle cx="12" cy="12" r="6" />
    <circle cx="12" cy="12" r="2" />
  </g>
  <text x="92" y="350" font-family="'Gotham', Arial, sans-serif" font-size="11" font-weight="600" fill="#3a3833" text-anchor="middle">target</text>
  <rect x="172" y="256" width="80" height="80" rx="10" fill="#ffffff" stroke="#e6e3da" stroke-width="1" />
  <g transform="translate(188, 272) scale(2)" fill="none" stroke="#1f1d18" stroke-width="1.6" stroke-linecap="round" stroke-linejoin="round">
    <path d="M4 14a1 1 0 0 1-.78-1.63l9.9-10.2a.5.5 0 0 1 .86.46l-1.92 6.02A1 1 0 0 0 13 10h7a1 1 0 0 1 .78 1.63l-9.9 10.2a.5.5 0 0 1-.86-.46l1.92-6.02A1 1 0 0 0 11 14z" />
  </g>
  <text x="212" y="350" font-family="'Gotham', Arial, sans-serif" font-size="11" font-weight="600" fill="#3a3833" text-anchor="middle">bolt</text>
  <rect x="292" y="256" width="80" height="80" rx="10" fill="#ffffff" stroke="#e6e3da" stroke-width="1" />
  <g transform="translate(308, 272) scale(2)" fill="none" stroke="#1f1d18" stroke-width="1.6" stroke-linecap="round" stroke-linejoin="round">
    <circle cx="12" cy="12" r="10" />
    <path d="M8 14s1.5 2 4 2 4-2 4-2" />
    <line x1="9" x2="9.01" y1="9" y2="9" />
    <line x1="15" x2="15.01" y1="9" y2="9" />
  </g>
  <text x="332" y="350" font-family="'Gotham', Arial, sans-serif" font-size="11" font-weight="600" fill="#3a3833" text-anchor="middle">smile</text>
  <rect x="412" y="256" width="80" height="80" rx="10" fill="#ffffff" stroke="#e6e3da" stroke-width="1" />
  <g transform="translate(428, 272) scale(2)" fill="none" stroke="#1f1d18" stroke-width="1.6" stroke-linecap="round" stroke-linejoin="round">
    <circle cx="12" cy="12" r="4" />
    <path d="M12 2v2" />
    <path d="M12 20v2" />
    <path d="m4.93 4.93 1.41 1.41" />
    <path d="m17.66 17.66 1.41 1.41" />
    <path d="M2 12h2" />
    <path d="M20 12h2" />
    <path d="m6.34 17.66-1.41 1.41" />
    <path d="m19.07 4.93-1.41 1.41" />
  </g>
  <text x="452" y="350" font-family="'Gotham', Arial, sans-serif" font-size="11" font-weight="600" fill="#3a3833" text-anchor="middle">sun</text>
  <rect x="532" y="256" width="80" height="80" rx="10" fill="#ffffff" stroke="#e6e3da" stroke-width="1" />
  <g transform="translate(548, 272) scale(2)" fill="none" stroke="#1f1d18" stroke-width="1.6" stroke-linecap="round" stroke-linejoin="round">
    <path d="M20.985 12.486a9 9 0 1 1-9.473-9.472c.405-.022.617.46.402.803a6 6 0 0 0 8.268 8.268c.344-.215.825-.004.803.401" />
  </g>
  <text x="572" y="350" font-family="'Gotham', Arial, sans-serif" font-size="11" font-weight="600" fill="#3a3833" text-anchor="middle">moon</text>
  <rect x="652" y="256" width="80" height="80" rx="10" fill="#ffffff" stroke="#e6e3da" stroke-width="1" />
  <g transform="translate(668, 272) scale(2)" fill="none" stroke="#1f1d18" stroke-width="1.6" stroke-linecap="round" stroke-linejoin="round">
    <path d="M2 6c.6.5 1.2 1 2.5 1C7 7 7 5 9.5 5c2.6 0 2.4 2 5 2 2.5 0 2.5-2 5-2 1.3 0 1.9.5 2.5 1" />
    <path d="M2 12c.6.5 1.2 1 2.5 1 2.5 0 2.5-2 5-2 2.6 0 2.4 2 5 2 2.5 0 2.5-2 5-2 1.3 0 1.9.5 2.5 1" />
    <path d="M2 18c.6.5 1.2 1 2.5 1 2.5 0 2.5-2 5-2 2.6 0 2.4 2 5 2 2.5 0 2.5-2 5-2 1.3 0 1.9.5 2.5 1" />
  </g>
  <text x="692" y="350" font-family="'Gotham', Arial, sans-serif" font-size="11" font-weight="600" fill="#3a3833" text-anchor="middle">waves</text>
  <rect x="52" y="376" width="80" height="80" rx="10" fill="#ffffff" stroke="#e6e3da" stroke-width="1" />
  <g transform="translate(68, 392) scale(2)" fill="none" stroke="#1f1d18" stroke-width="1.6" stroke-linecap="round" stroke-linejoin="round">
    <circle cx="12" cy="12" r="1" />
    <path d="M20.2 20.2c2.04-2.03.02-7.36-4.5-11.9-4.54-4.52-9.87-6.54-11.9-4.5-2.04 2.03-.02 7.36 4.5 11.9 4.54 4.52 9.87 6.54 11.9 4.5Z" />
    <path d="M15.7 15.7c4.52-4.54 6.54-9.87 4.5-11.9-2.03-2.04-7.36-.02-11.9 4.5-4.52 4.54-6.54 9.87-4.5 11.9 2.03 2.04 7.36.02 11.9-4.5Z" />
  </g>
  <text x="92" y="470" font-family="'Gotham', Arial, sans-serif" font-size="11" font-weight="600" fill="#3a3833" text-anchor="middle">atom</text>
  <rect x="172" y="376" width="80" height="80" rx="10" fill="#ffffff" stroke="#e6e3da" stroke-width="1" />
  <g transform="translate(188, 392) scale(2)" fill="none" stroke="#1f1d18" stroke-width="1.6" stroke-linecap="round" stroke-linejoin="round">
    <path d="M2 9.5a5.5 5.5 0 0 1 9.591-3.676.56.56 0 0 0 .818 0A5.49 5.49 0 0 1 22 9.5c0 2.29-1.5 4-3 5.5l-5.492 5.313a2 2 0 0 1-3 .019L5 15c-1.5-1.5-3-3.2-3-5.5" />
  </g>
  <text x="212" y="470" font-family="'Gotham', Arial, sans-serif" font-size="11" font-weight="600" fill="#3a3833" text-anchor="middle">heart</text>
  <rect x="292" y="376" width="80" height="80" rx="10" fill="#ffffff" stroke="#e6e3da" stroke-width="1" />
  <g transform="translate(308, 392) scale(2)" fill="none" stroke="#1f1d18" stroke-width="1.6" stroke-linecap="round" stroke-linejoin="round">
    <path d="M2 9.5a5.5 5.5 0 0 1 9.591-3.676.56.56 0 0 0 .818 0A5.49 5.49 0 0 1 22 9.5c0 2.29-1.5 4-3 5.5l-5.492 5.313a2 2 0 0 1-3 .019L5 15c-1.5-1.5-3-3.2-3-5.5" />
    <path d="M3.22 13H9.5l.5-1 2 4.5 2-7 1.5 3.5h5.27" />
  </g>
  <text x="332" y="470" font-family="'Gotham', Arial, sans-serif" font-size="11" font-weight="600" fill="#3a3833" text-anchor="middle">heart-pulse</text>
  <rect x="412" y="376" width="80" height="80" rx="10" fill="#ffffff" stroke="#e6e3da" stroke-width="1" />
  <g transform="translate(428, 392) scale(2)" fill="none" stroke="#1f1d18" stroke-width="1.6" stroke-linecap="round" stroke-linejoin="round">
    <path d="m10.5 20.5 10-10a4.95 4.95 0 1 0-7-7l-10 10a4.95 4.95 0 1 0 7 7Z" />
    <path d="m8.5 8.5 7 7" />
  </g>
  <text x="452" y="470" font-family="'Gotham', Arial, sans-serif" font-size="11" font-weight="600" fill="#3a3833" text-anchor="middle">pill</text>
  <text x="32" y="534" font-family="'Gotham Condensed', 'Gotham', Arial, sans-serif" font-size="22" font-weight="900" fill="#1f1d18" letter-spacing="0.5">RITUAL + FLOW</text>
  <line x1="32" y1="542" x2="752" y2="542" stroke="#e6e3da" stroke-width="1" />
  <rect x="52" y="556" width="80" height="80" rx="10" fill="#ffffff" stroke="#e6e3da" stroke-width="1" />
  <g transform="translate(68, 572) scale(2)" fill="none" stroke="#1f1d18" stroke-width="1.6" stroke-linecap="round" stroke-linejoin="round">
    <path d="M5.116 4.104A1 1 0 0 1 6.11 3h11.78a1 1 0 0 1 .994 1.105L17.19 20.21A2 2 0 0 1 15.2 22H8.8a2 2 0 0 1-2-1.79z" />
    <path d="M6 12a5 5 0 0 1 6 0 5 5 0 0 0 6 0" />
  </g>
  <text x="92" y="650" font-family="'Gotham', Arial, sans-serif" font-size="11" font-weight="600" fill="#3a3833" text-anchor="middle">cup</text>
  <rect x="172" y="556" width="80" height="80" rx="10" fill="#ffffff" stroke="#e6e3da" stroke-width="1" />
  <g transform="translate(188, 572) scale(2)" fill="none" stroke="#1f1d18" stroke-width="1.6" stroke-linecap="round" stroke-linejoin="round">
    <path d="M12 22a7 7 0 0 0 7-7c0-2-1-3.9-3-5.5s-3.5-4-4-6.5c-.5 2.5-2 4.9-4 6.5C6 11.1 5 13 5 15a7 7 0 0 0 7 7z" />
  </g>
  <text x="212" y="650" font-family="'Gotham', Arial, sans-serif" font-size="11" font-weight="600" fill="#3a3833" text-anchor="middle">droplet</text>
  <rect x="292" y="556" width="80" height="80" rx="10" fill="#ffffff" stroke="#e6e3da" stroke-width="1" />
  <g transform="translate(308, 572) scale(2)" fill="none" stroke="#1f1d18" stroke-width="1.6" stroke-linecap="round" stroke-linejoin="round">
    <path d="M12 6v6l4 2" />
    <circle cx="12" cy="12" r="10" />
  </g>
  <text x="332" y="650" font-family="'Gotham', Arial, sans-serif" font-size="11" font-weight="600" fill="#3a3833" text-anchor="middle">clock</text>
  <rect x="412" y="556" width="80" height="80" rx="10" fill="#ffffff" stroke="#e6e3da" stroke-width="1" />
  <g transform="translate(428, 572) scale(2)" fill="none" stroke="#1f1d18" stroke-width="1.6" stroke-linecap="round" stroke-linejoin="round">
    <line x1="10" x2="14" y1="2" y2="2" />
    <line x1="12" x2="15" y1="14" y2="11" />
    <circle cx="12" cy="14" r="8" />
  </g>
  <text x="452" y="650" font-family="'Gotham', Arial, sans-serif" font-size="11" font-weight="600" fill="#3a3833" text-anchor="middle">timer</text>
  <rect x="532" y="556" width="80" height="80" rx="10" fill="#ffffff" stroke="#e6e3da" stroke-width="1" />
  <g transform="translate(548, 572) scale(2)" fill="none" stroke="#1f1d18" stroke-width="1.6" stroke-linecap="round" stroke-linejoin="round">
    <path d="M11.525 2.295a.53.53 0 0 1 .95 0l2.31 4.679a2.123 2.123 0 0 0 1.595 1.16l5.166.756a.53.53 0 0 1 .294.904l-3.736 3.638a2.123 2.123 0 0 0-.611 1.878l.882 5.14a.53.53 0 0 1-.771.56l-4.618-2.428a2.122 2.122 0 0 0-1.973 0L6.396 21.01a.53.53 0 0 1-.77-.56l.881-5.139a2.122 2.122 0 0 0-.611-1.879L2.16 9.795a.53.53 0 0 1 .294-.906l5.165-.755a2.122 2.122 0 0 0 1.597-1.16z" />
  </g>
  <text x="572" y="650" font-family="'Gotham', Arial, sans-serif" font-size="11" font-weight="600" fill="#3a3833" text-anchor="middle">star</text>
  <rect x="652" y="556" width="80" height="80" rx="10" fill="#ffffff" stroke="#e6e3da" stroke-width="1" />
  <g transform="translate(668, 572) scale(2)" fill="none" stroke="#1f1d18" stroke-width="1.6" stroke-linecap="round" stroke-linejoin="round">
    <path d="M11.017 2.814a1 1 0 0 1 1.966 0l1.051 5.558a2 2 0 0 0 1.594 1.594l5.558 1.051a1 1 0 0 1 0 1.966l-5.558 1.051a2 2 0 0 0-1.594 1.594l-1.051 5.558a1 1 0 0 1-1.966 0l-1.051-5.558a2 2 0 0 0-1.594-1.594l-5.558-1.051a1 1 0 0 1 0-1.966l5.558-1.051a2 2 0 0 0 1.594-1.594z" />
    <path d="M20 2v4" />
    <path d="M22 4h-4" />
    <circle cx="4" cy="20" r="2" />
  </g>
  <text x="692" y="650" font-family="'Gotham', Arial, sans-serif" font-size="11" font-weight="600" fill="#3a3833" text-anchor="middle">sparkles</text>
  <rect x="52" y="676" width="80" height="80" rx="10" fill="#ffffff" stroke="#e6e3da" stroke-width="1" />
  <g transform="translate(68, 692) scale(2)" fill="none" stroke="#1f1d18" stroke-width="1.6" stroke-linecap="round" stroke-linejoin="round">
    <circle cx="12" cy="12" r="10" />
    <path d="m9 12 2 2 4-4" />
  </g>
  <text x="92" y="770" font-family="'Gotham', Arial, sans-serif" font-size="11" font-weight="600" fill="#3a3833" text-anchor="middle">check</text>
  <rect x="172" y="676" width="80" height="80" rx="10" fill="#ffffff" stroke="#e6e3da" stroke-width="1" />
  <g transform="translate(188, 692) scale(2)" fill="none" stroke="#1f1d18" stroke-width="1.6" stroke-linecap="round" stroke-linejoin="round">
    <path d="M10 2v2" />
    <path d="M14 2v2" />
    <path d="M16 8a1 1 0 0 1 1 1v8a4 4 0 0 1-4 4H7a4 4 0 0 1-4-4V9a1 1 0 0 1 1-1h14a4 4 0 1 1 0 8h-1" />
    <path d="M6 2v2" />
  </g>
  <text x="212" y="770" font-family="'Gotham', Arial, sans-serif" font-size="11" font-weight="600" fill="#3a3833" text-anchor="middle">coffee</text>
  <text x="32" y="834" font-family="'Gotham Condensed', 'Gotham', Arial, sans-serif" font-size="22" font-weight="900" fill="#1f1d18" letter-spacing="0.5">LIFESTYLE + MOMENTS</text>
  <line x1="32" y1="842" x2="752" y2="842" stroke="#e6e3da" stroke-width="1" />
  <rect x="52" y="856" width="80" height="80" rx="10" fill="#ffffff" stroke="#e6e3da" stroke-width="1" />
  <g transform="translate(68, 872) scale(2)" fill="none" stroke="#1f1d18" stroke-width="1.6" stroke-linecap="round" stroke-linejoin="round">
    <path d="M16 21v-2a4 4 0 0 0-4-4H6a4 4 0 0 0-4 4v2" />
    <path d="M16 3.128a4 4 0 0 1 0 7.744" />
    <path d="M22 21v-2a4 4 0 0 0-3-3.87" />
    <circle cx="9" cy="7" r="4" />
  </g>
  <text x="92" y="950" font-family="'Gotham', Arial, sans-serif" font-size="11" font-weight="600" fill="#3a3833" text-anchor="middle">users</text>
  <rect x="172" y="856" width="80" height="80" rx="10" fill="#ffffff" stroke="#e6e3da" stroke-width="1" />
  <g transform="translate(188, 872) scale(2)" fill="none" stroke="#1f1d18" stroke-width="1.6" stroke-linecap="round" stroke-linejoin="round">
    <path d="M4 22V4a1 1 0 0 1 .4-.8A6 6 0 0 1 8 2c3 0 5 2 7.333 2q2 0 3.067-.8A1 1 0 0 1 20 4v10a1 1 0 0 1-.4.8A6 6 0 0 1 16 16c-3 0-5-2-8-2a6 6 0 0 0-4 1.528" />
  </g>
  <text x="212" y="950" font-family="'Gotham', Arial, sans-serif" font-size="11" font-weight="600" fill="#3a3833" text-anchor="middle">flag</text>
  <rect x="292" y="856" width="80" height="80" rx="10" fill="#ffffff" stroke="#e6e3da" stroke-width="1" />
  <g transform="translate(308, 872) scale(2)" fill="none" stroke="#1f1d18" stroke-width="1.6" stroke-linecap="round" stroke-linejoin="round">
    <rect width="20" height="14" x="2" y="3" rx="2" />
    <line x1="8" x2="16" y1="21" y2="21" />
    <line x1="12" x2="12" y1="17" y2="21" />
  </g>
  <text x="332" y="950" font-family="'Gotham', Arial, sans-serif" font-size="11" font-weight="600" fill="#3a3833" text-anchor="middle">monitor</text>
  <rect x="412" y="856" width="80" height="80" rx="10" fill="#ffffff" stroke="#e6e3da" stroke-width="1" />
  <g transform="translate(428, 872) scale(2)" fill="none" stroke="#1f1d18" stroke-width="1.6" stroke-linecap="round" stroke-linejoin="round">
    <path d="M16 20V4a2 2 0 0 0-2-2h-4a2 2 0 0 0-2 2v16" />
    <rect width="20" height="14" x="2" y="6" rx="2" />
  </g>
  <text x="452" y="950" font-family="'Gotham', Arial, sans-serif" font-size="11" font-weight="600" fill="#3a3833" text-anchor="middle">briefcase</text>
  <rect x="532" y="856" width="80" height="80" rx="10" fill="#ffffff" stroke="#e6e3da" stroke-width="1" />
  <g transform="translate(548, 872) scale(2)" fill="none" stroke="#1f1d18" stroke-width="1.6" stroke-linecap="round" stroke-linejoin="round">
    <line x1="6" x2="10" y1="11" y2="11" />
    <line x1="8" x2="8" y1="9" y2="13" />
    <line x1="15" x2="15.01" y1="12" y2="12" />
    <line x1="18" x2="18.01" y1="10" y2="10" />
    <path d="M17.32 5H6.68a4 4 0 0 0-3.978 3.59c-.006.052-.01.101-.017.152C2.604 9.416 2 14.456 2 16a3 3 0 0 0 3 3c1 0 1.5-.5 2-1l1.414-1.414A2 2 0 0 1 9.828 16h4.344a2 2 0 0 1 1.414.586L17 18c.5.5 1 1 2 1a3 3 0 0 0 3-3c0-1.545-.604-6.584-.685-7.258-.007-.05-.011-.1-.017-.151A4 4 0 0 0 17.32 5z" />
  </g>
  <text x="572" y="950" font-family="'Gotham', Arial, sans-serif" font-size="11" font-weight="600" fill="#3a3833" text-anchor="middle">gamepad</text>
  <rect x="652" y="856" width="80" height="80" rx="10" fill="#ffffff" stroke="#e6e3da" stroke-width="1" />
  <g transform="translate(668, 872) scale(2)" fill="none" stroke="#1f1d18" stroke-width="1.6" stroke-linecap="round" stroke-linejoin="round">
    <path d="M8 22h8" />
    <path d="M7 10h10" />
    <path d="M12 15v7" />
    <path d="M12 15a5 5 0 0 0 5-5c0-2-.5-4-2-8H9c-1.5 4-2 6-2 8a5 5 0 0 0 5 5Z" />
  </g>
  <text x="692" y="950" font-family="'Gotham', Arial, sans-serif" font-size="11" font-weight="600" fill="#3a3833" text-anchor="middle">wine</text>
  <rect x="52" y="976" width="80" height="80" rx="10" fill="#ffffff" stroke="#e6e3da" stroke-width="1" />
  <g transform="translate(68, 992) scale(2)" fill="none" stroke="#1f1d18" stroke-width="1.6" stroke-linecap="round" stroke-linejoin="round">
    <rect width="20" height="14" x="2" y="5" rx="2" />
    <line x1="2" x2="22" y1="10" y2="10" />
  </g>
  <text x="92" y="1070" font-family="'Gotham', Arial, sans-serif" font-size="11" font-weight="600" fill="#3a3833" text-anchor="middle">card</text>
  <text x="32" y="1134" font-family="'Gotham Condensed', 'Gotham', Arial, sans-serif" font-size="22" font-weight="900" fill="#1f1d18" letter-spacing="0.5">COMPARISON + PROOF</text>
  <line x1="32" y1="1142" x2="752" y2="1142" stroke="#e6e3da" stroke-width="1" />
  <rect x="52" y="1156" width="80" height="80" rx="10" fill="#ffffff" stroke="#e6e3da" stroke-width="1" />
  <g transform="translate(68, 1172) scale(2)" fill="none" stroke="#1f1d18" stroke-width="1.6" stroke-linecap="round" stroke-linejoin="round">
    <path d="m21 21-4.34-4.34" />
    <circle cx="11" cy="11" r="8" />
  </g>
  <text x="92" y="1250" font-family="'Gotham', Arial, sans-serif" font-size="11" font-weight="600" fill="#3a3833" text-anchor="middle">search</text>
  <rect x="172" y="1156" width="80" height="80" rx="10" fill="#ffffff" stroke="#e6e3da" stroke-width="1" />
  <g transform="translate(188, 1172) scale(2)" fill="none" stroke="#1f1d18" stroke-width="1.6" stroke-linecap="round" stroke-linejoin="round">
    <path d="m12 14 4-4" />
    <path d="M3.34 19a10 10 0 1 1 17.32 0" />
  </g>
  <text x="212" y="1250" font-family="'Gotham', Arial, sans-serif" font-size="11" font-weight="600" fill="#3a3833" text-anchor="middle">gauge</text>
  <rect x="292" y="1156" width="80" height="80" rx="10" fill="#ffffff" stroke="#e6e3da" stroke-width="1" />
  <g transform="translate(308, 1172) scale(2)" fill="none" stroke="#1f1d18" stroke-width="1.6" stroke-linecap="round" stroke-linejoin="round">
    <path d="M15 14c.2-1 .7-1.7 1.5-2.5 1-.9 1.5-2.2 1.5-3.5A6 6 0 0 0 6 8c0 1 .2 2.2 1.5 3.5.7.7 1.3 1.5 1.5 2.5" />
    <path d="M9 18h6" />
    <path d="M10 22h4" />
  </g>
  <text x="332" y="1250" font-family="'Gotham', Arial, sans-serif" font-size="11" font-weight="600" fill="#3a3833" text-anchor="middle">lightbulb</text>
  <rect x="412" y="1156" width="80" height="80" rx="10" fill="#ffffff" stroke="#e6e3da" stroke-width="1" />
  <g transform="translate(428, 1172) scale(2)" fill="none" stroke="#1f1d18" stroke-width="1.6" stroke-linecap="round" stroke-linejoin="round">
    <path d="M22 12h-2.48a2 2 0 0 0-1.93 1.46l-2.35 8.36a.25.25 0 0 1-.48 0L9.24 2.18a.25.25 0 0 0-.48 0l-2.35 8.36A2 2 0 0 1 4.49 12H2" />
  </g>
  <text x="452" y="1250" font-family="'Gotham', Arial, sans-serif" font-size="11" font-weight="600" fill="#3a3833" text-anchor="middle">activity</text>
  <rect x="532" y="1156" width="80" height="80" rx="10" fill="#ffffff" stroke="#e6e3da" stroke-width="1" />
  <g transform="translate(548, 1172) scale(2)" fill="none" stroke="#1f1d18" stroke-width="1.6" stroke-linecap="round" stroke-linejoin="round">
    <path d="M11 4.702a.705.705 0 0 0-1.203-.498L6.413 7.587A1.4 1.4 0 0 1 5.416 8H3a1 1 0 0 0-1 1v6a1 1 0 0 0 1 1h2.416a1.4 1.4 0 0 1 .997.413l3.383 3.384A.705.705 0 0 0 11 19.298z" />
    <path d="M16 9a5 5 0 0 1 0 6" />
    <path d="M19.364 18.364a9 9 0 0 0 0-12.728" />
  </g>
  <text x="572" y="1250" font-family="'Gotham', Arial, sans-serif" font-size="11" font-weight="600" fill="#3a3833" text-anchor="middle">volume</text>
  <rect x="652" y="1156" width="80" height="80" rx="10" fill="#ffffff" stroke="#e6e3da" stroke-width="1" />
  <g transform="translate(668, 1172) scale(2)" fill="none" stroke="#1f1d18" stroke-width="1.6" stroke-linecap="round" stroke-linejoin="round">
    <path d="M16 7h6v6" />
    <path d="m22 7-8.5 8.5-5-5L2 17" />
  </g>
  <text x="692" y="1250" font-family="'Gotham', Arial, sans-serif" font-size="11" font-weight="600" fill="#3a3833" text-anchor="middle">trending</text>
  <rect x="52" y="1276" width="80" height="80" rx="10" fill="#ffffff" stroke="#e6e3da" stroke-width="1" />
  <g transform="translate(68, 1292) scale(2)" fill="none" stroke="#1f1d18" stroke-width="1.6" stroke-linecap="round" stroke-linejoin="round">
    <path d="M12 3v18" />
    <path d="m19 8 3 8a5 5 0 0 1-6 0zV7" />
    <path d="M3 7h1a17 17 0 0 0 8-2 17 17 0 0 0 8 2h1" />
    <path d="m5 8 3 8a5 5 0 0 1-6 0zV7" />
    <path d="M7 21h10" />
  </g>
  <text x="92" y="1370" font-family="'Gotham', Arial, sans-serif" font-size="11" font-weight="600" fill="#3a3833" text-anchor="middle">scale</text>
  <rect x="172" y="1276" width="80" height="80" rx="10" fill="#ffffff" stroke="#e6e3da" stroke-width="1" />
  <g transform="translate(188, 1292) scale(2)" fill="none" stroke="#1f1d18" stroke-width="1.6" stroke-linecap="round" stroke-linejoin="round">
    <path d="M12 7v14" />
    <path d="M3 18a1 1 0 0 1-1-1V4a1 1 0 0 1 1-1h5a4 4 0 0 1 4 4 4 4 0 0 1 4-4h5a1 1 0 0 1 1 1v13a1 1 0 0 1-1 1h-6a3 3 0 0 0-3 3 3 3 0 0 0-3-3z" />
  </g>
  <text x="212" y="1370" font-family="'Gotham', Arial, sans-serif" font-size="11" font-weight="600" fill="#3a3833" text-anchor="middle">book</text>
  <text x="32" y="1434" font-family="'Gotham Condensed', 'Gotham', Arial, sans-serif" font-size="22" font-weight="900" fill="#1f1d18" letter-spacing="0.5">QUALITY BADGES</text>
  <line x1="32" y1="1442" x2="752" y2="1442" stroke="#e6e3da" stroke-width="1" />
  <rect x="52" y="1456" width="80" height="80" rx="10" fill="#ffffff" stroke="#e6e3da" stroke-width="1" />
  <g transform="translate(68, 1472) scale(2)" fill="none" stroke="#1f1d18" stroke-width="1.6" stroke-linecap="round" stroke-linejoin="round">
    <path d="M6 18h8" />
    <path d="M3 22h18" />
    <path d="M14 22a7 7 0 1 0 0-14h-1" />
    <path d="M9 14h2" />
    <path d="M9 12a2 2 0 0 1-2-2V6h6v4a2 2 0 0 1-2 2Z" />
    <path d="M12 6V3a1 1 0 0 0-1-1H9a1 1 0 0 0-1 1v3" />
  </g>
  <text x="92" y="1550" font-family="'Gotham', Arial, sans-serif" font-size="11" font-weight="600" fill="#3a3833" text-anchor="middle">microscope</text>
  <rect x="172" y="1456" width="80" height="80" rx="10" fill="#ffffff" stroke="#e6e3da" stroke-width="1" />
  <g transform="translate(188, 1472) scale(2)" fill="none" stroke="#1f1d18" stroke-width="1.6" stroke-linecap="round" stroke-linejoin="round">
    <path d="M14 9.536V7a4 4 0 0 1 4-4h1.5a.5.5 0 0 1 .5.5V5a4 4 0 0 1-4 4 4 4 0 0 0-4 4c0 2 1 3 1 5a5 5 0 0 1-1 3" />
    <path d="M4 9a5 5 0 0 1 8 4 5 5 0 0 1-8-4" />
    <path d="M5 21h14" />
  </g>
  <text x="212" y="1550" font-family="'Gotham', Arial, sans-serif" font-size="11" font-weight="600" fill="#3a3833" text-anchor="middle">sprout</text>
  <rect x="292" y="1456" width="80" height="80" rx="10" fill="#ffffff" stroke="#e6e3da" stroke-width="1" />
  <g transform="translate(308, 1472) scale(2)" fill="none" stroke="#1f1d18" stroke-width="1.6" stroke-linecap="round" stroke-linejoin="round">
    <path d="M2 22 16 8" />
    <path d="M3.47 12.53 5 11l1.53 1.53a3.5 3.5 0 0 1 0 4.94L5 19l-1.53-1.53a3.5 3.5 0 0 1 0-4.94Z" />
    <path d="M7.47 8.53 9 7l1.53 1.53a3.5 3.5 0 0 1 0 4.94L9 15l-1.53-1.53a3.5 3.5 0 0 1 0-4.94Z" />
    <path d="M11.47 4.53 13 3l1.53 1.53a3.5 3.5 0 0 1 0 4.94L13 11l-1.53-1.53a3.5 3.5 0 0 1 0-4.94Z" />
    <path d="M20 2h2v2a4 4 0 0 1-4 4h-2V6a4 4 0 0 1 4-4Z" />
    <path d="M11.47 17.47 13 19l-1.53 1.53a3.5 3.5 0 0 1-4.94 0L5 19l1.53-1.53a3.5 3.5 0 0 1 4.94 0Z" />
    <path d="M15.47 13.47 17 15l-1.53 1.53a3.5 3.5 0 0 1-4.94 0L9 15l1.53-1.53a3.5 3.5 0 0 1 4.94 0Z" />
    <path d="M19.47 9.47 21 11l-1.53 1.53a3.5 3.5 0 0 1-4.94 0L13 11l1.53-1.53a3.5 3.5 0 0 1 4.94 0Z" />
  </g>
  <text x="332" y="1550" font-family="'Gotham', Arial, sans-serif" font-size="11" font-weight="600" fill="#3a3833" text-anchor="middle">wheat</text>
  <rect x="412" y="1456" width="80" height="80" rx="10" fill="#ffffff" stroke="#e6e3da" stroke-width="1" />
  <g transform="translate(428, 1472) scale(2)" fill="none" stroke="#1f1d18" stroke-width="1.6" stroke-linecap="round" stroke-linejoin="round">
    <path d="M3.85 8.62a4 4 0 0 1 4.78-4.77 4 4 0 0 1 6.74 0 4 4 0 0 1 4.78 4.78 4 4 0 0 1 0 6.74 4 4 0 0 1-4.77 4.78 4 4 0 0 1-6.75 0 4 4 0 0 1-4.78-4.77 4 4 0 0 1 0-6.76Z" />
    <path d="m9 12 2 2 4-4" />
  </g>
  <text x="452" y="1550" font-family="'Gotham', Arial, sans-serif" font-size="11" font-weight="600" fill="#3a3833" text-anchor="middle">badge-check</text>
</svg>
